<?xml version="1.0" encoding="utf-8"?>
<!-- Generator: Adobe Illustrator 19.0.0, SVG Export Plug-In . SVG Version: 6.00 Build 0)  -->
<svg version="1.1" id="Layer_1" xmlns="http://www.w3.org/2000/svg" xmlns:xlink="http://www.w3.org/1999/xlink" x="0px" y="0px"
	 viewBox="0 0 500 500" style="enable-background:new 0 0 500 500;" xml:space="preserve">
<style type="text/css">
	.st0{fill:#FFFFFF;}
	.st1{fill:#0A0A09;}
	.st2{fill:#C6A463;}
	.st3{fill:#C81D3C;}
</style>
<g id="XMLID_1_">
	<ellipse id="XMLID_10_" class="st0" cx="250" cy="250" rx="180" ry="106.4"/>
	<ellipse id="XMLID_9_" class="st1" cx="249.6" cy="250.8" rx="174.5" ry="101.7"/>
	<ellipse id="XMLID_8_" class="st2" cx="250.4" cy="252" rx="152.2" ry="93.9"/>
	<ellipse id="XMLID_7_" class="st3" cx="250.8" cy="250.4" rx="140.1" ry="87.7"/>
	<path id="XMLID_6_" class="st1" d="M360.2,238.9h-0.4v-3.2H357h-52.8c-1.2-6.3-4.8-12.1-9.9-16.6c-5.1-5.8-12.4-10.2-20.8-11.8
		l-3.5-0.7c-8-1.7-14.4-3-39.8-2.9c0,0-4.9-0.2-9.7-0.8c-1.2-0.3-2.3-0.7-3.2-1.1c0.4-2.1,4.2-5,8.6-5.6c0.5-0.1,28-5.2,56.4,13.2
		l0.7,0.4h18.7v-28.6h-3.2v-3.2h-25.6c0,0-3,2.3-4.3,3.3c-7.4-1.8-43.5-9.7-74.7,3.9c-13.1,5.4-21.2,15.6-20.7,26
		c0.3,5.2,2.8,9.8,7.1,13.3c3.2,4,8.2,7.1,14.7,9c9.2,2.7,17,3.8,24.6,4.2v0.9v12.1h3.2v3.2h9.7c4,0,5.1,2.2,5.3,3.1
		c-12.4-0.8-31.3-4.4-45.2-17.2l-0.5-0.6h-0.1c-0.8-0.7-1.5-1.5-2.3-2.3l-0.8-0.9h-14v40.6h3.2v3.2h11.4c1.7,0.1,7-0.5,10.6-11.2
		c5.9,2.1,20.6,6.5,38.6,7v25.3c-0.6,8.5-19.3,11.1-25.9,11.4l-2.7,0.1v12.6h3.2v3.2h82.1v-12l-2.1-0.6c-0.4-0.1-0.7-0.2-1.1-0.3
		v-2.8l-2.6-0.2c-4.6-0.4-8.2-1.2-10.9-2.2c-5.2-2.9-6-5.2-6.2-5.6v-13.5h24.1c2.5,0.4,4.7,1.5,6.6,2.9c3.5,4.3,5,9.1,5.1,9.2l0.6,2
		l2.1,0h0.1c0.3,0.7,0.4,1.2,0.4,1.2l0.6,2h2.1h10.9v-48.9h-2.8h-0.4v-3.2h-2.8h-10.1l-0.5,2.2c-3.4,16.2-22.2,16-38.9,13.6
		c3.3-0.9,6.6-2,9.8-3.3c8.9-3.6,15.7-8.4,19.8-14.1h36.1c2.5,0.1,4.7,0.7,6.5,1.9c3.8,5.6,3.4,13.7,3.4,13.8l-0.2,3h3h0.4
		c0,0.1,0,0.2,0,0.2l-0.2,3l3,0H363v-37.9L360.2,238.9L360.2,238.9z"/>
	<path id="XMLID_5_" class="st0" d="M302.7,249h29.9c17.1,0.5,15.8,21.8,15.8,21.8h8.6v-32.2h-51.6
		C305.4,238.6,305.3,245.8,302.7,249"/>
	<path id="XMLID_4_" class="st0" d="M241.9,276.5v24.8c-0.9,13-28.5,14.1-28.5,14.1v7.1h76.5v-7.1c-22.7-2-22.8-13.6-22.8-13.6
		v-16.5h27.2c12.4,1.8,17.2,17.3,17.2,17.3h8.1v-43.3h-7.8c-5.4,26.1-45.4,14.3-48.3,15C263.3,274.3,253.5,276.7,241.9,276.5"/>
	<path id="XMLID_3_" class="st0" d="M265.7,233.9c10.4,3,11.4,11,5.3,18.4c-7.8,7.3-19.7,7.6-19.7,7.6s-40,4.3-63.4-20.9h-10v35h8.7
		c0,0,5.3,0.8,8.7-12c0,0,41.1,16.7,80.2,1.2c37.8-15,23.4-48-2.6-53.1c-10-2-14-3.7-42.7-3.5c0,0-5.2-0.2-10.2-0.8
		c-15.8-4-6.8-14.2,2.5-15.4c0,0,28.5-5.6,58.3,13.7h15V181H274l-4.6,3.5c0,0-40.5-11.3-74.2,3.4c-22.6,9.3-27,32.7-2.3,39.9
		c21.7,6.3,35.6,3.6,57.7,4.5C256.7,232.5,262,232.8,265.7,233.9"/>
	<path id="XMLID_2_" class="st0" d="M233.1,248.1h-10.4v-9.3c8,0,24.5,0.1,36.1,0c11.7,0,13.2,6.8,8.3,11.3
		c-4.6,4.3-14.4,7.4-25.9,5.3C241.2,255.4,240.3,248.1,233.1,248.1"/>
</g>
</svg>
