<?xml version="1.0" encoding="utf-8"?>
<!-- Generator: Adobe Illustrator 19.2.1, SVG Export Plug-In . SVG Version: 6.00 Build 0)  -->
<svg version="1.1" id="layer" xmlns="http://www.w3.org/2000/svg" xmlns:xlink="http://www.w3.org/1999/xlink" x="0px" y="0px"
	 viewBox="0 0 652 652" style="enable-background:new 0 0 652 652;" xml:space="preserve">
<style type="text/css">
	.st0{fill:#00254C;}
	.st1{fill:#FCCB00;}
	.st2{fill:#003EA0;}
	.st3{fill:#FFFFFF;}
</style>
<g>
	<path class="st0" d="M322,82.9c-131.5,0-238.5,107-238.5,238.5s107,238.5,238.5,238.5c131.5,0,238.5-107,238.5-238.5
		S453.5,82.9,322,82.9"/>
	<path class="st1" d="M322,71.4c-137.8,0-250,112.1-250,250c0,137.9,112.1,250,250,250c137.9,0,250-112.1,250-250
		C572,183.5,459.9,71.4,322,71.4 M83.5,321.4c0-131.5,107-238.5,238.5-238.5c131.5,0,238.5,107,238.5,238.5
		c0,131.5-107,238.5-238.5,238.5C190.5,559.9,83.5,452.9,83.5,321.4"/>
	<path class="st2" d="M322,548.6c-125.3,0-227.2-101.9-227.2-227.2S196.7,94.2,322,94.2c125.3,0,227.2,101.9,227.2,227.2
		S447.3,548.6,322,548.6 M322,99.9c-122.1,0-221.4,99.3-221.4,221.5S199.9,542.9,322,542.9c122.1,0,221.5-99.3,221.5-221.5
		S444.1,99.9,322,99.9"/>
	<path class="st1" d="M434.3,271.7v33.4c0,27.9-4.6,44.8-26.5,91.2c-23.1,48.8-51.5,63.3-85.6,63.3c-22.4,0-43.4-7.4-60.5-21
		l-0.2,0.1l-3.8-3.4l-0.7-0.6c-4.8-4.3-8.9-8.9-12.5-13.7c-0.3-0.4-0.6-0.8-0.9-1.2c-0.1-0.1-0.1-0.1-0.1-0.2
		c-0.2-0.3-0.4-0.6-0.6-0.9c-2-2.9-3.9-5.8-5.6-8.9c-0.2-0.3-0.4-0.7-0.6-1c-5.6-10.1-9.3-20.1-12.4-28.5c-0.9-2.4-1.7-4.7-2.5-6.8
		c-6.4-16.5-18.9-48.8-24.9-65c-6.3-16.9-7.2-28.9-3.2-40.1c4.3-12,13.9-21.6,27-32.3c13.1-10.7,24.4-19.6,39.9-30.9
		c9.7-7,20.2-10.7,30.2-10.7c4.3,0,8.3,0.7,11.9,2c0.7,0.2,1.4,0.5,2.3,0.9c3.4,1.3,6.4,3,9,5.1c0.3-0.2,0.5-0.3,0.8-0.5
		c7.2-4.2,15.2-6.4,23.2-6.4c6.4,0,12.6,1.4,18,4c1.2,0.6,1.9,0.9,2.6,1.3c0.4,0.2,0.8,0.4,1.4,0.7c4.3,2.2,7.9,5,10.9,8.2
		c4.8-1.6,9.4-2.4,13.8-2.4c6.7,0,13,1.8,18.6,5.4l1.4,0.9c2.6,1.6,3.9,2.5,5.9,3.9C426,228.3,434.3,240.1,434.3,271.7"/>
	<path class="st0" d="M405,225.9c-2.2-1.5-3.4-2.3-6.9-4.5c-6.8-4.4-15.9-5.8-28.3-0.3c-0.8,0.4-1.6,0.7-2.3,1
		c-2.7-5.6-7.6-9.4-11.9-11.6c-1.7-0.9-2.2-1.2-3.8-1.9c-8.4-4-20.6-4.6-31.9,2c-2.3,1.3-5.3,3.1-7.8,4.6c-2.6-4.5-6.7-7.2-10.4-8.6
		c-0.9-0.3-1.6-0.6-2.2-0.8c-8.4-3.1-20.6-1.4-32.9,7.4c-14.6,10.6-25.4,19-39.4,30.5c-25.7,21-31.2,33.1-20.7,61.2
		c5.7,15.4,17.9,47,24.8,64.9c4,10.3,8.2,23.6,15.7,36.4v0c0.7,1.2,1.4,2.3,2.2,3.5c0.2,0.3,0.4,0.6,0.6,0.9
		c3.4,5.2,7.5,10.2,12.4,14.9c0.4,0.4,0.8,0.8,1.2,1.1c0.2,0.2,0.4,0.4,0.6,0.6c0,0,0,0,0,0c15.3,14,35.6,22.4,58.4,22.4
		c41.8,0,75.7-33.9,75.7-75.7v-0.1c0-39.9-32.4-72.3-72.3-72.3c-21.7,0-43.5,12.5-56.3,32.3c-5.5-13.4-17.2-42-26-63.4
		c-4.7-11.5-3.6-17.4,3.6-24.1c3.7-3.4,8.2-6.9,13.2-10.2c5.1-3.5,10.9-1.4,10.9,5.3v71.4c11.6-11.8,25.9-19.4,44.2-22.8l-0.3-59
		c1.3-0.8,2.5-1.6,3.4-2.1c4.7-2.7,8,0.3,8,4.6v54.9c0.3,0,0.6,0,0.9,0c15.4,0,29.9,4.2,42.3,11.5v-61.6c1.2-0.5,2.3-0.9,3.1-1.3
		c4.7-1.9,7.8,1,7.8,5.3c0,4.2-0.3,65.3-0.3,65.3c17.2,14.2,28.3,35,30.1,58.5c8.2-17.4,14-33.7,14-61.2v-33.4
		C424.3,243.9,418,234.9,405,225.9 M325,331.3c24.1,0,43.7,19.5,43.7,43.7s-19.5,43.7-43.7,43.7c-24.1,0-43.6-19.5-43.6-43.7
		S300.9,331.3,325,331.3"/>
	<path class="st3" d="M291.9,374.9c0-7.9,2.8-15.2,7.4-20.9c9.3,12.3,9.3,29.5,0,41.8C294.7,390.1,291.9,382.8,291.9,374.9
		 M305.1,401.4c12.2-15.5,12.2-37.5,0-53c5.5-4.2,12.4-6.6,19.9-6.6c7.5,0,14.3,2.5,19.9,6.6c-12.2,15.5-12.2,37.5,0,53
		c-5.5,4.2-12.4,6.7-19.9,6.7C317.6,408,310.7,405.6,305.1,401.4 M350.7,395.8c-9.3-12.3-9.3-29.5,0-41.8c4.6,5.7,7.4,13,7.4,20.9
		C358.1,382.8,355.3,390.1,350.7,395.8"/>
	<polygon class="st3" points="162.5,251.9 149.5,252.1 167.4,260.3 164.1,267.6 158.9,265.2 159.7,263.3 136.3,252.7 135.5,254.5 
		130.3,252.2 133.6,244.9 136.4,246.1 155,246 142.9,232 140.1,230.7 143.4,223.4 148.6,225.7 147.7,227.6 171.1,238.3 172,236.4 
		177.2,238.8 173.9,246.1 156,238 164.4,247.9 	"/>
	<polygon class="st3" points="171.2,185.5 175.5,189.2 174.2,190.7 193.8,207.5 195.1,206 199.4,209.7 192.6,217.5 188.4,213.8 
		189.7,212.3 170.1,195.4 168.8,197 164.5,193.3 	"/>
	<polygon class="st3" points="226,176.9 231.2,173.3 235.6,179.6 218.4,191.6 215.2,186.9 216.8,185.8 202.1,164.6 200.4,165.8 
		197.2,161.1 205.7,155.2 208.9,159.9 207.1,161.1 221.9,182.3 227.2,178.6 	"/>
	<polygon class="st3" points="276.9,122.8 278.7,128.2 276.7,128.9 280.2,157.8 281.1,160.5 275.1,162.4 274.3,159.8 264.3,143.3 
		265.8,162.5 266.7,165.1 260.7,167.1 259.9,164.4 245.8,138.9 243.8,139.4 242.1,134.1 249.3,131.7 250.2,134.4 259.3,151 
		258,131.9 262.8,130.4 272.8,146.6 270.5,127.9 269.7,125.2 	"/>
	<path class="st3" d="M334.5,150.3l1.9,0l-0.1,5.7l-8.1-0.1l0.2-10l-9.5-0.2l-0.2,10l-8.2-0.1l0.1-5.7l1.9,0l0.3-19.7l5.6-11.6
		l11.2,0.2l5.2,11.8L334.5,150.3z M328.6,131.3l-3.1-6.9l-3.2-0.1l-3.3,6.8l-0.1,8.8l9.5,0.2L328.6,131.3z"/>
	<polygon class="st3" points="395.8,132 394.1,137.5 392.1,136.8 384.9,159.6 379.3,165.7 365.8,161.4 364.7,153.2 371.9,130.4 
		369.9,129.8 371.7,124.3 379.5,126.8 371.1,153.5 371.5,157.2 376.9,159 379.4,156.2 387.9,129.5 	"/>
	<polygon class="st3" points="442.6,158.1 447.3,161.3 444,165.9 442.4,164.8 430.2,172.1 427.8,186 429.4,187.2 426.2,191.9 
		421.5,188.6 424.5,171.6 422.1,169.9 413.2,182.9 406.4,178.2 409.6,173.5 411.2,174.7 425.9,153.4 424.2,152.3 427.4,147.6 
		434.2,152.3 425.3,165.2 427.7,166.9 	"/>
	<polygon class="st3" points="476.5,201.7 478,200.5 474,195.5 466.3,201.8 472.3,209.2 467.8,212.8 461.8,205.5 454.1,211.8 
		458.1,216.7 459.7,215.4 463.6,220.3 457.7,225.1 444.4,209 448.9,205.3 450.2,206.9 470.1,190.7 468.7,189.1 473.2,185.5 
		486.4,201.7 480.4,206.6 	"/>
	<polygon class="st3" points="503.4,248.1 505.2,247.3 502.6,241.5 493.5,245.4 497.3,254.1 492,256.4 488.2,247.7 479.1,251.7 
		481.6,257.5 483.5,256.7 486,262.5 478.9,265.5 470.5,246.4 475.8,244.1 476.6,246 500.2,235.8 499.3,233.9 504.6,231.6 
		512.9,250.8 505.9,253.8 	"/>
	<path class="st3" d="M167.1,454l-12.7-16.3l4.5-3.5l1.3,1.6l20.3-15.8l-1.3-1.6l4.5-3.5l12.7,16.3l-2.8,5.6l-6.6,5.1l-4.8,1.1
		l-2.3,4.4l-6.6,5.1L167.1,454z M176,442.5l0.9-1.6l-4.9-6.3l-8,6.2l4.8,6.2l2.2-0.6L176,442.5z M184.4,424.9l-7.9,6.2l4.9,6.3
		l1.8-0.4l5-3.9l1-2L184.4,424.9z"/>
	<path class="st3" d="M217.5,490.1l1.6,1.1l-3.2,4.7l-4.7-3.2l2.7-15.2l-3.3-2.3l-8,11.5l-6.8-4.7l3.2-4.7l1.6,1.2l14.8-21.1
		l-1.7-1.1l3.2-4.7l16.2,11.3l-1.5,8.3l-4.6,6.6l-7,4.1l-1.1-0.8L217.5,490.1z M214,470.4l6.6,4.6l1.5-0.9l4.6-6.6l0.4-2.2l-6.5-4.5
		L214,470.4z"/>
	<polygon class="st3" points="272.3,488.8 272.9,486.9 266.9,484.9 263.8,494.4 272.8,497.4 271.1,502.8 262,499.9 259,509.4 
		265,511.3 265.6,509.4 271.6,511.3 269.2,518.6 249.3,512.2 251.1,506.8 253,507.4 261,483 259,482.4 260.8,476.9 280.7,483.4 
		278.3,490.7 	"/>
	<polygon class="st3" points="341.8,487.9 341.9,493.6 339.8,493.6 334.7,522.4 334.8,525.2 328.5,525.3 328.4,522.5 323.7,503.9 
		319.6,522.6 319.6,525.4 313.4,525.5 313.3,522.7 307.3,494.2 305.2,494.2 305.1,488.5 312.8,488.4 312.8,491.2 316.7,509.7 
		321,491.1 326,491 330.9,509.5 334.2,490.9 334.1,488.1 	"/>
	<polygon class="st3" points="382.8,485.1 382.2,483.2 376.2,485.3 379.4,494.7 388.4,491.6 390.3,497.1 381.3,500.2 384.5,509.6 
		390.6,507.5 389.9,505.6 395.8,503.6 398.3,510.8 378.6,517.7 376.7,512.3 378.7,511.6 370.3,487.3 368.3,488 366.5,482.6 
		386.2,475.8 388.7,483.1 	"/>
	<path class="st3" d="M446.2,476.2l1.6-1.2l3.3,4.6l-4.6,3.3l-13.5-7.6l-3.3,2.4l8.2,11.4l-6.7,4.9l-3.3-4.6l1.6-1.2l-15.1-20.9
		l-1.6,1.2l-3.3-4.6l16-11.6l7.4,4.1l4.7,6.5l1.6,8l-1.1,0.8L446.2,476.2z M426.5,473.1l6.5-4.7l-0.4-1.8l-4.7-6.5L426,459l-6.4,4.6
		L426.5,473.1z"/>
	<polygon class="st3" points="489.1,438.3 479.4,451.1 473.3,449.7 470.1,447.3 473.8,442.3 475.6,443.6 477.6,444 481.8,438.5 
		480.9,436.6 477.4,433.9 460.3,439.9 452.8,434.2 449.8,428.7 459.5,415.9 465.6,417.2 468.8,419.6 465.1,424.6 463.5,423.4 
		461.3,422.9 457.1,428.5 458.1,430.4 461.5,433 478.5,427 486.2,432.8 	"/>
	<polygon class="st1" points="492.1,518.6 497.2,518.6 497.2,532.5 500.6,532.5 500.6,518.6 505.8,518.6 505.8,515.6 492.1,515.6 	
		"/>
	<polygon class="st1" points="518.9,526.6 518.8,526.6 514.8,515.6 508.8,515.6 508.8,532.5 512.3,532.5 512.3,519 512.4,519 
		517.1,532.5 520.5,532.5 525.4,519 525.4,519 525.4,532.5 528.9,532.5 528.9,515.6 523,515.6 	"/>
</g>
</svg>
